# xmcd
#
# Track frame offsets:
#	150
#	13040
#	24400
#	37737
#	51260
#	72392
#	81722
#	94647
#	107377
#	119652
#	132325
#	146055
#	159277
#	169270
#	181890
#	193402
#	204625
#	216165
#	228127
#	240062
#
# Disc length: 3384 seconds
#
# Revision: 1
# Processed by: cddbd v1.5.2PL0 Copyright (c) Steve Scherf et al.
# Submitted via: audiograbber 1.83.01
#
DISCID=130d3614
DTITLE=Various Artist - Country Top Hits of the 50s
DYEAR=2007
DGENRE=Country
TTITLE0=Hank Snow - I'm Movin' On
TTITLE1=Don Gibson - Oh Lonesome Me
TTITLE2=Stuart Hamblen - This Ole House
TTITLE3=Pee Wee King and His Golden West Cowboys - Slow Poke
TTITLE4=Marty Robbins - El Paso
TTITLE5=Elvis Presley - Blue Moon Of Kentucky
TTITLE6=The Browns - The Three Bells
TTITLE7=Eddy Arnold - I Really Don't Want To Know
TTITLE8=Johnny Cash - I Walk The Line
TTITLE9=Homer and Jethro - (How Much Is) That Hound Dog In the Window
TTITLE10=Carl Smith - If Teardrops Were Pennies
TTITLE11=Lefty Frizzell - If You've Got The Money, I've Got The Time
TTITLE12=Moon Mullican - I'll Sail My Ship Alone
TTITLE13=Porter Wagoner - Satisfied Mind
TTITLE14=Johnny Horton - The Battle of New Orleans
TTITLE15=Stonewall Jackson - Waterloo
TTITLE16=Ray Price - Crazy Arms
TTITLE17=Jim Reeves - Mexican Joe
TTITLE18=Hank Locklin - It's A Little More Like Heaven
TTITLE19=Cowboy Copas - 'Tis Sweet To Be Remembered
EXTD=
EXTT0=
EXTT1=
EXTT2=
EXTT3=
EXTT4=
EXTT5=
EXTT6=
EXTT7=
EXTT8=
EXTT9=
EXTT10=
EXTT11=
EXTT12=
EXTT13=
EXTT14=
EXTT15=
EXTT16=
EXTT17=
EXTT18=
EXTT19=
PLAYORDER=
